<svg width="149" height="149" viewBox="0 0 149 149" fill="none" xmlns="http://www.w3.org/2000/svg">
<rect width="149" height="149" rx="5" fill="url(#paint0_linear_7_605)"/>
<g clip-path="url(#clip0_7_605)">
<path d="M91.2626 48.4249C89.7807 48.4249 88.3595 49.0136 87.3116 50.0614C86.2638 51.1093 85.6751 52.5305 85.6751 54.0124C85.6751 55.4943 86.2638 56.9155 87.3116 57.9634C88.3595 59.0112 89.7807 59.5999 91.2626 59.5999C92.7445 59.5999 94.1657 59.0112 95.2136 57.9634C96.2614 56.9155 96.8501 55.4943 96.8501 54.0124C96.8501 52.5305 96.2614 51.1093 95.2136 50.0614C94.1657 49.0136 92.7445 48.4249 91.2626 48.4249ZM81.9501 54.0124C81.9498 51.8274 82.7179 49.7119 84.1198 48.0361C85.5217 46.3602 87.4683 45.2306 89.619 44.8449C91.7697 44.4593 93.9874 44.8422 95.8843 45.9266C97.7812 47.0109 99.2364 48.7278 99.9953 50.7767C100.754 52.8256 100.769 55.0762 100.036 57.1346C99.3029 59.193 97.8696 60.9282 95.9867 62.0366C94.1037 63.145 91.891 63.556 89.7356 63.1977C87.5802 62.8394 85.6194 61.7346 84.1963 60.0767L59.1717 71.6987C59.747 73.5219 59.747 75.4779 59.1717 77.3011L84.1963 88.9231C85.7006 87.1736 87.8008 86.0448 90.09 85.7556C92.3791 85.4663 94.6941 86.0371 96.5863 87.3575C98.4785 88.6778 99.8132 90.6535 100.332 92.9019C100.85 95.1502 100.516 97.5109 99.3928 99.5266C98.2699 101.542 96.4387 103.069 94.2541 103.812C92.0695 104.554 89.687 104.459 87.5684 103.545C85.4499 102.631 83.746 100.963 82.7872 98.8646C81.8283 96.766 81.6827 94.3861 82.3785 92.1862L57.3539 80.5642C56.1151 82.0079 54.4639 83.0376 52.6224 83.5147C50.7808 83.9919 48.8373 83.8936 47.0533 83.2331C45.2693 82.5726 43.7304 81.3816 42.6436 79.8203C41.5567 78.259 40.9741 76.4022 40.9741 74.4999C40.9741 72.5976 41.5567 70.7408 42.6436 69.1795C43.7304 67.6182 45.2693 66.4272 47.0533 65.7667C48.8373 65.1062 50.7808 65.0079 52.6224 65.4851C54.4639 65.9622 56.1151 66.9919 57.3539 68.4356L82.3785 56.8136C82.0936 55.9072 81.9492 54.9625 81.9501 54.0124ZM50.2876 68.9124C48.8057 68.9124 47.3845 69.5011 46.3367 70.5489C45.2888 71.5968 44.7001 73.018 44.7001 74.4999C44.7001 75.9818 45.2888 77.403 46.3367 78.4509C47.3845 79.4987 48.8057 80.0874 50.2876 80.0874C51.7695 80.0874 53.1907 79.4987 54.2386 78.4509C55.2864 77.403 55.8751 75.9818 55.8751 74.4999C55.8751 73.018 55.2864 71.5968 54.2386 70.5489C53.1907 69.5011 51.7695 68.9124 50.2876 68.9124ZM91.2626 89.3999C89.7807 89.3999 88.3595 89.9886 87.3116 91.0364C86.2638 92.0843 85.6751 93.5055 85.6751 94.9874C85.6751 96.4693 86.2638 97.8905 87.3116 98.9384C88.3595 99.9862 89.7807 100.575 91.2626 100.575C92.7445 100.575 94.1657 99.9862 95.2136 98.9384C96.2614 97.8905 96.8501 96.4693 96.8501 94.9874C96.8501 93.5055 96.2614 92.0843 95.2136 91.0364C94.1657 89.9886 92.7445 89.3999 91.2626 89.3999Z" fill="white"/>
</g>
<defs>
<linearGradient id="paint0_linear_7_605" x1="3.2379e-07" y1="74.5" x2="149" y2="74.5" gradientUnits="userSpaceOnUse">
<stop stop-color="#007BFF"/>
<stop offset="1" stop-color="#00C9E4"/>
</linearGradient>
<clipPath id="clip0_7_605">
<rect width="59.6" height="59.6" fill="white" transform="translate(40.9751 44.7)"/>
</clipPath>
</defs>
</svg>
